<svg width="1198" height="1198" viewBox="0 0 1198 1198" fill="none" xmlns="http://www.w3.org/2000/svg">
<circle cx="599" cy="599" r="593.502" fill="#F0DFFA" stroke="black" stroke-width="9.00382"/>
<mask id="mask0_204_4042" style="mask-type:alpha" maskUnits="userSpaceOnUse" x="10" y="10" width="1178" height="1178">
<circle cx="599" cy="599" r="588.75" fill="#68278F"/>
</mask>
<g mask="url(#mask0_204_4042)">
<path d="M790.179 785.543C715.882 1008.22 517.402 1076.99 412.453 800.407C398.02 762.37 435.756 748.213 462.147 731.476C480.223 720.011 489.719 710.069 488.617 699.82C483.422 651.463 460.927 516.929 460.927 516.929L458.639 512.595C458.639 512.595 459.187 511.38 457.034 513.528C454.789 515.769 449.614 539.161 429.216 539.161C410.928 539.161 392.362 530.986 383.477 474.414C380.261 453.942 382.086 400.269 404.741 390.577C414.103 386.572 422.74 385.141 431.166 389.947C439.592 394.753 421.445 373.517 515.156 295.424C576.07 244.662 672.288 237.222 711.112 245.793C749.937 254.363 788.761 273.368 805.934 313.613C826.77 362.445 786.522 399.319 795.361 510.532C793.751 550.712 796.057 638.899 685.485 668.455C711.875 653.375 709.25 697.625 702.5 712.25C752.75 728 790.219 766.451 790.219 785.644" fill="#F8E8D0"/>
<path d="M711.125 696.5L708.875 665.375L701.75 666.125L704.375 700.625L711.125 696.5Z" fill="black" stroke="black" stroke-width="0.75"/>
<path fill-rule="evenodd" clip-rule="evenodd" d="M795.5 426.5C800.375 380.75 804.564 345.409 818.986 321.34C823.83 324.655 823.264 328.857 821.75 332.75C805.505 374.515 800.247 457.53 801.601 500.881C803.162 550.701 790.736 595.991 757.516 634.052C745.986 647.261 730.724 656.348 715.141 664.283C673.296 685.592 626.864 687.766 586.292 657.794C581.854 654.516 578.204 650.045 574.671 645.717L574.442 645.437C572.582 643.159 572.254 639.605 574.855 637.596C577.29 635.716 579.207 637.258 581.339 638.973C581.611 639.192 581.886 639.414 582.167 639.632C599.02 652.71 617.379 663.965 639.125 666.125C661.139 668.312 688.684 666.061 708.201 655.242C729.085 643.658 748.912 630.671 762.377 609.748C774.442 590.998 783.322 569.493 787.625 548C791.688 527.712 792.145 505.994 792.634 482.828V482.828V482.827C793.011 464.919 793.407 446.146 795.5 426.5ZM412.763 382.868C429.183 381.548 438.328 391.275 446.028 402.54C455.498 416.394 460.543 432.099 462.778 448.679C463.153 451.46 463.542 454.417 461.864 457.142C458.553 457.587 458.239 454.959 458.189 452.988C457.772 437.483 450.895 423.957 443.981 410.867C439.048 401.528 431.794 392.48 420.457 390.183C407.533 387.563 395.644 399.174 389.8 414.381C378.977 442.548 380.772 470.27 390.841 497.569C395.248 509.515 400.736 521.685 411.727 530.019C422.857 538.46 436.256 536.971 444.427 525.762C444.894 525.121 445.388 524.487 445.883 523.851L445.884 523.851C447.381 521.929 448.89 519.992 449.696 517.812C451.276 513.537 453.692 509.472 458.116 510.067C463.234 510.756 464.203 516.297 464.682 520.624C469.031 559.946 475.069 599.018 481.108 638.095L481.109 638.104C482.607 647.796 484.105 657.488 485.577 667.185C487.527 680.017 489.786 698.448 488.271 706.287C488.164 706.844 488.102 707.392 488.043 707.917C487.812 709.968 487.622 711.657 484.93 712.062C481.276 712.613 479.623 710.495 479.175 707.21C477.435 694.455 476.955 689.56 476.206 670.051C475.481 651.139 471.926 632.499 468.373 613.862C467.083 607.1 465.794 600.338 464.64 593.565C460.71 570.497 456.862 547.101 456.517 520.833C455.994 521.606 455.483 522.369 454.981 523.119C449.32 531.572 444.698 538.471 436.61 541.158C423.185 545.62 411.438 542.316 402.028 531.708C391.303 519.616 384.337 505.856 380.419 489.873C374.183 464.44 373.028 439.526 381.115 414.39C384.991 402.33 398.892 380.906 412.763 382.868ZM438.76 478.494C442.037 480.85 445.009 482.987 447.751 474.461C446.869 442.739 436.7 422.49 420.854 421.724C429.31 432.648 437.419 443.31 438.104 458.099C434.557 456.484 432.275 453.942 430.088 451.506C428.565 449.81 427.088 448.165 425.261 446.919C424.483 446.389 423.721 445.802 422.953 445.21C419.408 442.476 415.727 439.637 409.603 441.768C412.475 446.14 416.431 449.226 420.349 452.283C424.874 455.813 429.349 459.303 432.044 464.689C424.083 470.421 420.657 477.965 424.789 487.071C428.373 494.972 433.674 501.5 444.174 501.976C443.782 497.233 440.651 493.781 437.609 490.426C433.909 486.347 430.341 482.412 431.987 476.476C434.386 475.35 436.637 476.968 438.76 478.494Z" fill="black"/>
<path d="M1086.01 1188H246.508L114.55 1186.22C114.55 1186.22 133.874 1008.65 142.056 984.966C161.661 928.218 181.467 859.362 232.372 825.691C254.572 811.003 272.343 797.98 273.785 790.051C274.515 786.041 347.151 715.27 360.292 708.098C422.932 673.912 483.854 694.318 483.854 694.318L484.529 708.394C484.529 708.394 485.97 725.419 489.695 730.487C506.751 753.706 565.72 768.289 605.334 771.474C654.996 775.466 709.209 752.979 710.829 736.467C712.098 723.537 694.793 700.074 719.695 690.253C738.857 682.695 795.839 687.497 815.753 695.219C841.363 705.152 890.047 735.337 913.464 765.27C922.625 776.981 924.495 809.913 955.699 819.549C1002.2 833.908 1037.9 901.07 1057.18 984.966C1067.03 1027.83 1086.01 1188 1086.01 1188Z" fill="#68278F"/>
<path d="M1081.27 1187.75C1076.58 1171.8 1072.65 1132.77 1070.09 1111.26C1068.25 1095.76 1055.36 986.397 1041.17 948.216C1032.49 924.848 1024.42 900.922 1011.6 879.094C1002.82 864.147 989.604 853.393 977.049 842.454C961.552 828.954 944.44 817.206 926.844 806.293C903.656 791.912 879.247 788.981 853.615 797.502C845.252 800.292 839.637 806.164 837.216 815.765C827.131 855.753 830.343 896.442 829.859 936.928C829.233 989.278 832.184 1041.55 833.778 1093.85C835.086 1136.78 833.678 1143.91 833.296 1187.75C829.552 1187.75 826.546 1187.75 822.432 1187.75C821.75 1163.62 822.133 1176.24 821.995 1152.12C821.788 1116.45 821.38 1080.78 820.77 1045.11C820.326 1016.73 820.545 988.294 818.689 959.999C816.739 930.268 816.642 900.634 819.214 871.049C821.055 849.892 819.3 828.299 827.697 807.808C834.747 790.598 848.909 783.939 865.1 782.71C881.886 781.435 899.361 779.052 917.431 789.648C913.849 777.185 906.208 771.107 900.46 764.101C879.448 738.489 851.379 722.513 822.835 706.587C793.308 690.114 762.254 692.306 730.837 693.523C725.958 693.712 721.776 696.316 717.501 698.548C711.864 701.487 705.735 705.072 697.25 703.25C704.394 693.523 714.153 689.131 723.903 686.293C751.704 678.201 778.641 682.434 795.64 684.957C817.288 688.17 891.996 724.19 927.262 780.873C944.013 807.797 991.607 808.173 1035 899.04C1046.51 923.148 1054.59 948.813 1060.99 974.626C1069.17 1007.62 1090.62 1164.04 1090.62 1187.75C1087.38 1187.75 1084.73 1187.75 1081.27 1187.75Z" fill="black"/>
<path d="M121.446 1187.75C122.963 1182.58 123.465 1180.33 124.176 1175.97C127.66 1154.65 128.276 1132.77 130.833 1111.26C132.673 1095.76 133.318 1080.19 135.413 1064.69C140.744 1025.24 147.045 986.029 159.75 948.216C167.74 924.441 176.503 900.922 189.324 879.094C198.103 864.147 211.317 853.393 223.873 842.454C239.37 828.954 256.482 817.206 274.078 806.293C297.266 791.912 321.675 788.981 347.307 797.502C355.67 800.292 361.285 806.164 363.706 815.765C373.79 855.753 370.578 896.442 371.063 936.928C371.689 989.278 368.738 1041.55 367.143 1093.85C365.835 1136.78 367.571 1187.63 367.571 1187.63C367.571 1187.63 374.362 1187.75 378.477 1187.75C379.158 1163.62 378.789 1176.24 378.927 1152.12C379.134 1116.45 379.542 1080.78 380.151 1045.11C380.595 1016.73 380.376 988.294 382.232 959.999C384.182 930.268 384.28 900.634 381.707 871.049C379.866 849.892 381.621 828.299 373.224 807.808C366.174 790.598 352.012 783.939 335.821 782.71C319.036 781.435 301.56 779.052 283.49 789.648C287.072 777.185 294.713 771.107 300.461 764.101C321.472 738.489 349.542 722.513 378.086 706.587C407.613 690.114 438.667 692.306 470.084 693.523C474.963 693.712 479.145 696.316 483.42 698.548C489.057 701.487 485.177 707.129 488.259 699.017C492.543 687.735 486.768 689.134 477.018 686.296C449.217 678.204 421.411 683.319 393.685 686.711C388.158 687.386 382.623 689.989 377.625 692.689C339.056 713.526 290.547 750.598 273.659 780.876C264.643 797.041 250.595 805.451 238.034 816.618C193.215 856.476 181.452 865.117 165.916 899.043C154.794 923.333 146.327 948.816 139.927 974.629C131.745 1007.62 125.571 1041.07 122.8 1075.22C120.825 1099.58 117.306 1123.88 115.088 1148.3C113.534 1165.4 112.443 1178.11 112.443 1187.75C115.261 1187.75 117.979 1187.75 121.446 1187.75Z" fill="black"/>
<path d="M958.843 1187.75C960.342 1169.97 952.893 1124.21 949.495 1100.95C947.02 1084.02 947.226 1066.55 940.9 1050.19C939.332 1046.14 939.828 1040.91 944.89 1040.07C949.733 1039.27 951.837 1042.68 952.948 1048.16C958.776 1076.92 961.399 1106.08 964.888 1135.13C967.588 1157.6 970.802 1180.21 971.286 1187.69C966.905 1187.75 963.603 1187.75 958.843 1187.75Z" fill="black"/>
<path d="M254.964 1187.75C256.046 1170.08 261.003 1124.21 264.402 1100.95C266.877 1084.02 266.671 1066.55 272.997 1050.19C274.566 1046.14 274.07 1040.91 269.007 1040.07C264.165 1039.27 262.06 1042.68 260.949 1048.16C255.121 1076.92 252.498 1106.08 249.009 1135.13C246.309 1157.6 244.668 1187.75 244.668 1187.75C244.668 1187.75 250.204 1187.75 254.964 1187.75Z" fill="black"/>
<path d="M742.801 1188L459.686 1187.75C459.686 1187.75 449.551 862.027 449.551 795.017C449.551 739.563 476.954 678.953 488.526 697.032C509.876 730.388 545.909 738.329 600.28 740.746C686.547 744.581 691.462 712.294 703.218 705.624C726.832 692.228 742.801 747.952 742.801 805.456C742.801 884.373 742.801 1188 742.801 1188Z" fill="#0D0520"/>
<path d="M460.52 1188C460.52 1188 449.551 867.321 449.551 801.393C449.551 746.834 476.954 679.245 488.526 697.032C509.876 729.849 546.426 740.799 600.796 743.177C687.064 746.949 691.462 712.187 703.218 705.624C726.832 692.444 742.801 755.087 742.801 811.663C742.801 862.592 742.801 1187.75 742.801 1187.75" stroke="black" stroke-width="11.25"/>
<path d="M367.28 254.528C375.563 233.587 386.696 215.213 400.179 198.172C402.163 195.729 404.442 193.541 406.963 191.657C409.306 189.835 412.47 187.64 410.168 183.73C406.043 176.721 408.754 170.893 413.618 165.377C411.003 160.818 408.233 156.611 406.081 152.108C401.687 142.913 406.187 133.856 416.137 131.622C429.295 128.668 442.03 128.884 453.719 136.889C455.755 138.282 458.25 139.004 461.122 140.304C463.655 132.954 465.709 126.004 468.427 119.324C473.1 107.835 483.395 105.734 491.571 114.71C493.51 116.84 495.141 117.815 497.845 118.097C509.493 119.309 509.485 119.382 512.731 130.558C524.862 127.386 536.94 123.739 549.236 121.108C576.977 115.183 604.851 111.188 633.418 114.969C657.493 118.156 681.07 123.023 703.713 131.909C745.467 148.295 782.758 171.364 812.364 205.601C836.632 233.666 860.854 261.781 884.542 290.333C891.055 298.181 896.061 307.559 890.383 318.551C886.624 325.826 879.808 329.426 872.842 332.312C841.435 345.331 810.725 340.187 779.727 329.492C759.503 322.513 741.518 310.926 721.496 303.781C718.578 302.739 715.831 300.79 712.353 301.556C709.309 307.458 711.678 314.201 707.442 320.507C698.287 334.136 684.478 333.515 671.623 333.765C650.885 334.228 630.176 331.997 610.013 327.128C587.176 321.578 564.372 316.112 542.438 308.37C539.41 311.754 542.176 313.608 543.193 315.672C548.893 327.245 542.569 337.967 529.864 338.342C523.703 338.523 517.793 338.141 512.348 334.701C509.388 332.831 506.033 331.682 502.196 332.702C499.941 338.164 502.981 343.31 503.201 348.602C504.007 367.97 499.276 386.412 494.435 404.96C489.668 423.221 479.303 438.541 470.443 454.685C468.286 458.613 465.577 463.025 460.423 462.3C454.693 461.495 456.523 455.804 455.536 452.092C452.273 439.832 453.851 426.539 448.309 414.836C442.834 403.278 436.459 392.167 424.689 385.571C415.276 380.295 402.541 383.031 397.539 392.476C395.472 396.382 391.357 396.59 389.098 400.501C384.882 407.799 378.833 413.844 379.962 423.314C380.18 425.141 377.872 426.344 375.052 426.022C361.177 396.962 354.699 366.326 357.824 333.772C359.104 320.438 358.493 307.02 359.515 293.609C360.529 280.334 364.204 267.95 367.28 254.528Z" fill="#2B1905"/>
<path d="M706.8 590.111C715.236 585.58 718.34 590.496 721.133 596.127C708.941 612.704 670.098 613.93 660.308 596.728C675.48 592.212 691.611 596.667 706.8 590.111Z" fill="black"/>
<path d="M704.309 447.527C703.874 436.918 701.073 427.075 704.619 417.406C705.507 414.984 705.519 410.968 709.588 411.496C713.72 412.032 712.975 415.629 712.572 418.348C709.165 441.334 717.822 462.242 723.897 483.54C725.907 490.583 728.838 497.21 728.472 504.858C727.881 517.194 719.979 524.665 707.873 522.558C703.533 521.707 699.038 522.173 694.966 523.898C684.548 528.098 675.43 520.198 665.306 519.961C662.253 519.886 660.381 514.477 660.123 510.459C659.999 508.522 660.336 506.552 662.653 505.884C664.232 505.307 665.987 506.052 666.669 507.588C669.345 512.874 673.593 510.012 677.443 510.687C686.362 512.249 694.713 511.718 703.515 511.378C707.865 511.21 712.316 513.847 716.445 510.141C720.807 506.224 719.45 501.651 718.095 496.899C713.502 480.724 706.306 465.284 704.309 447.527Z" fill="black"/>
<path d="M595.346 441.976C599.087 432.948 602.014 419.926 613.41 425.09C628.919 432.12 623.804 448.135 620.667 460.611C619.484 465.319 609.777 472.545 606.977 471.378C594.761 466.285 592.528 455.071 595.346 441.976Z" fill="black"/>
<path d="M765.468 469.57C759.037 475.162 752.741 475.27 748.862 468.445C742.028 456.415 742.403 443.826 751.355 433.015C753.226 430.756 761.67 430.292 763.562 432.308C774.019 443.454 774.47 456.095 765.468 469.57Z" fill="black"/>
<path d="M636.962 389.554C640.658 393.325 648.404 394.408 644.573 401.325C640.89 407.977 633.674 409.104 626.976 408.165C619.718 407.237 612.622 405.318 605.885 402.463C596.259 398.206 588.14 399.789 579.937 405.539C575.381 408.733 568.809 414.124 564.902 408.597C560.35 402.161 569.247 399.545 573.158 396.087C585.603 385.082 600.943 382.394 616.828 382.008C624.103 381.831 629.995 386.365 636.962 389.554Z" fill="black"/>
<path d="M731.058 396.264C743.615 392.448 755.407 388.563 768.143 391.997C776.537 394.14 783.865 399.262 788.761 406.409C790.629 409.071 791.812 412.549 788.656 415.022C785.574 417.44 781.771 417.492 779.344 414.017C773.085 405.051 765.154 405.665 756.694 409.758C749.341 413.316 741.577 411.719 734.171 411.323C726.101 410.891 724.921 404.998 731.058 396.264Z" fill="black"/>
</g>
</svg>
