<svg width="1138" height="1197" viewBox="0 0 1138 1197" fill="none" xmlns="http://www.w3.org/2000/svg">
<g clip-path="url(#clip0_210_2917)">
<path d="M898.113 222.818C1017.15 341.062 1142.88 503.648 1137.85 673.624C1132.82 843.6 997.027 1024.66 822.67 1118.89C648.313 1214.96 433.72 1226.05 281.157 1131.82C128.595 1035.75 38.0634 836.21 9.56273 636.673C-18.9379 438.983 16.2688 241.294 115.183 128.592C215.773 15.8908 381.748 -15.5178 522.575 6.65297C663.402 28.8238 777.404 104.574 898.113 222.818Z" fill="url(#paint0_linear_210_2917)"/>
<mask id="mask0_210_2917" style="mask-type:alpha" maskUnits="userSpaceOnUse" x="0" y="0" width="1138" height="1197">
<path d="M898.113 222.818C1017.15 341.062 1142.88 503.648 1137.85 673.624C1132.82 843.6 997.027 1024.66 822.67 1118.89C648.313 1214.96 433.72 1226.05 281.157 1131.82C128.595 1035.75 38.0634 836.21 9.56273 636.673C-18.9379 438.983 16.2688 241.294 115.183 128.592C215.773 15.8908 381.748 -15.5178 522.575 6.65297C663.402 28.8238 777.404 104.574 898.113 222.818Z" fill="url(#paint1_linear_210_2917)"/>
</mask>
<g mask="url(#mask0_210_2917)">
<path d="M740.179 794.543C665.882 1017.22 467.402 1085.99 362.452 809.407C348.02 771.37 385.756 757.213 412.146 740.476C430.223 729.011 439.719 719.069 438.617 708.82C433.422 660.463 410.926 525.929 410.926 525.929L408.639 521.595C408.639 521.595 409.187 520.38 407.034 522.528C404.789 524.769 399.614 548.161 379.216 548.161C360.928 548.161 342.361 539.986 333.477 483.414C330.261 462.942 332.086 409.269 354.741 399.577C364.103 395.572 372.74 394.141 381.166 398.947C389.592 403.753 371.445 382.517 465.156 304.424C526.07 253.662 622.288 246.222 661.112 254.793C699.937 263.363 738.761 282.368 755.934 322.613C776.77 371.445 736.521 408.319 745.361 519.532C743.751 559.712 746.057 647.899 635.485 677.455C661.875 662.375 659.25 706.625 652.5 721.25C702.75 737 740.219 775.451 740.219 794.644" fill="#F8E8D0"/>
<path d="M661.125 705.5L658.875 674.375L651.75 675.125L654.375 709.625L661.125 705.5Z" fill="black" stroke="black" stroke-width="0.75"/>
<path fill-rule="evenodd" clip-rule="evenodd" d="M745.5 435.5C750.375 389.75 754.564 354.409 768.986 330.339C773.83 333.655 773.264 337.857 771.75 341.75C755.505 383.515 750.247 466.53 751.601 509.881C753.162 559.701 740.736 604.991 707.516 643.052C695.986 656.261 680.724 665.348 665.141 673.283C623.296 694.592 576.864 696.766 536.292 666.794C531.854 663.516 528.204 659.045 524.671 654.717L524.442 654.437C522.582 652.159 522.254 648.605 524.855 646.596C527.29 644.716 529.207 646.258 531.339 647.973C531.611 648.192 531.886 648.414 532.167 648.632C549.02 661.71 567.379 672.965 589.125 675.125C611.139 677.312 638.684 675.061 658.201 664.242C679.085 652.658 698.912 639.671 712.377 618.748C724.442 599.998 733.322 578.493 737.625 557C741.688 536.712 742.145 514.994 742.634 491.828V491.828V491.827C743.011 473.919 743.407 455.146 745.5 435.5ZM362.763 391.868C379.183 390.548 388.328 400.275 396.028 411.54C405.498 425.394 410.543 441.099 412.778 457.679C413.153 460.46 413.542 463.417 411.864 466.142C408.553 466.587 408.239 463.959 408.189 461.988C407.772 446.483 400.895 432.957 393.981 419.867C389.048 410.528 381.794 401.48 370.457 399.183C357.533 396.563 345.644 408.174 339.8 423.381C328.977 451.548 330.772 479.27 340.841 506.569C345.248 518.515 350.736 530.685 361.727 539.019C372.857 547.46 386.256 545.971 394.427 534.762C394.894 534.121 395.388 533.487 395.883 532.851L395.884 532.851C397.381 530.929 398.89 528.992 399.696 526.812C401.276 522.537 403.692 518.472 408.116 519.067C413.234 519.756 414.203 525.297 414.682 529.624C419.031 568.946 425.069 608.018 431.108 647.095L431.109 647.104C432.607 656.796 434.105 666.488 435.577 676.185C437.527 689.017 439.786 707.448 438.271 715.287C438.164 715.844 438.102 716.392 438.043 716.917C437.812 718.968 437.622 720.657 434.93 721.062C431.276 721.613 429.623 719.495 429.175 716.21C427.435 703.455 426.955 698.56 426.206 679.051C425.481 660.139 421.926 641.499 418.373 622.862C417.083 616.1 415.794 609.338 414.64 602.565C410.71 579.497 406.862 556.101 406.517 529.833C405.994 530.606 405.483 531.369 404.981 532.119C399.32 540.571 394.698 547.471 386.61 550.158C373.185 554.62 361.438 551.316 352.028 540.708C341.303 528.616 334.337 514.856 330.419 498.873C324.183 473.44 323.028 448.526 331.115 423.39C334.991 411.33 348.892 389.906 362.763 391.868ZM388.76 487.494C392.037 489.85 395.009 491.987 397.751 483.461C396.869 451.739 386.7 431.49 370.854 430.724C379.31 441.648 387.419 452.31 388.104 467.099C384.557 465.484 382.275 462.942 380.088 460.506C378.565 458.81 377.088 457.165 375.261 455.919C374.483 455.389 373.721 454.802 372.953 454.209C369.408 451.476 365.727 448.637 359.603 450.768C362.475 455.14 366.431 458.226 370.349 461.283C374.874 464.813 379.349 468.303 382.044 473.689C374.083 479.421 370.657 486.965 374.789 496.071C378.373 503.972 383.674 510.5 394.174 510.976C393.782 506.233 390.651 502.781 387.609 499.426C383.909 495.347 380.341 491.412 381.987 485.476C384.386 484.35 386.637 485.968 388.76 487.494Z" fill="black"/>
<path d="M1036.01 1197H196.508L64.5503 1195.22C64.5503 1195.22 83.8738 1017.65 92.0558 993.966C111.661 937.218 131.467 868.362 182.372 834.691C204.572 820.003 222.343 806.98 223.785 799.051C224.515 795.041 297.151 724.27 310.292 717.098C372.932 682.912 433.854 703.318 433.854 703.318L434.529 717.394C434.529 717.394 435.97 734.419 439.695 739.487C456.752 762.706 515.72 777.289 555.334 780.474C604.997 784.466 659.209 761.979 660.83 745.467C662.098 732.537 644.794 709.075 669.695 699.253C688.858 691.695 745.839 696.497 765.753 704.219C791.363 714.152 840.047 744.337 863.464 774.27C872.625 785.981 874.495 818.913 905.699 828.549C952.199 842.908 987.895 910.07 1007.18 993.966C1017.03 1036.83 1036.01 1197 1036.01 1197Z" fill="#492162"/>
<path d="M1031.27 1196.75C1026.58 1180.8 1022.65 1141.77 1020.09 1120.26C1018.25 1104.76 1005.36 995.397 991.171 957.216C982.489 933.848 974.42 909.922 961.598 888.094C952.819 873.147 939.605 862.393 927.049 851.454C911.552 837.954 894.44 826.206 876.844 815.293C853.656 800.912 829.247 797.981 803.615 806.502C795.252 809.292 789.637 815.164 787.216 824.765C777.131 864.753 780.344 905.442 779.859 945.928C779.233 998.278 782.184 1050.55 783.779 1102.85C785.087 1145.78 783.678 1152.91 783.296 1196.75C779.552 1196.75 776.546 1196.75 772.432 1196.75C771.751 1172.62 772.133 1185.24 771.995 1161.12C771.788 1125.45 771.38 1089.78 770.771 1054.11C770.327 1025.73 770.546 997.294 768.689 968.999C766.739 939.268 766.643 909.634 769.214 880.049C771.056 858.892 769.301 837.299 777.698 816.808C784.748 799.598 798.909 792.939 815.1 791.71C831.886 790.435 849.362 788.052 867.431 798.648C863.849 786.185 856.208 780.107 850.46 773.101C829.448 747.489 801.38 731.513 772.835 715.587C743.309 699.114 712.254 701.306 680.837 702.523C675.959 702.712 671.777 705.316 667.501 707.548C661.864 710.487 655.735 714.073 647.25 712.25C654.394 702.523 664.154 698.131 673.904 695.293C701.705 687.201 728.642 691.434 745.64 693.957C767.288 697.17 841.996 733.19 877.262 789.873C894.013 816.797 941.607 817.173 985.001 908.04C996.514 932.148 1004.59 957.813 1010.99 983.626C1019.17 1016.62 1040.62 1173.04 1040.62 1196.75C1037.38 1196.75 1034.73 1196.75 1031.27 1196.75Z" fill="black"/>
<path d="M71.4458 1196.75C72.9627 1191.58 73.4645 1189.33 74.1764 1184.97C77.6598 1163.65 78.2759 1141.77 80.8327 1120.26C82.6732 1104.76 83.3182 1089.19 85.4129 1073.69C90.7439 1034.24 97.0447 995.029 109.75 957.216C117.739 933.441 126.502 909.922 139.324 888.094C148.103 873.147 161.317 862.393 173.873 851.454C189.37 837.954 206.482 826.206 224.078 815.293C247.266 800.912 271.675 797.981 297.307 806.502C305.67 809.292 311.285 815.164 313.706 824.765C323.79 864.753 320.578 905.442 321.063 945.928C321.689 998.278 318.738 1050.55 317.143 1102.85C315.835 1145.78 317.571 1196.63 317.571 1196.63C317.571 1196.63 324.362 1196.75 328.477 1196.75C329.158 1172.62 328.789 1185.24 328.927 1161.12C329.134 1125.45 329.542 1089.78 330.151 1054.11C330.595 1025.73 330.376 997.294 332.232 968.999C334.182 939.268 334.279 909.634 331.707 880.049C329.866 858.892 331.621 837.299 323.224 816.808C316.174 799.598 302.012 792.939 285.821 791.71C269.035 790.435 251.56 788.052 233.49 798.648C237.072 786.185 244.713 780.107 250.461 773.101C271.472 747.489 299.542 731.513 328.086 715.587C357.613 699.114 388.667 701.306 420.084 702.523C424.963 702.712 429.145 705.316 433.42 707.548C439.057 710.487 435.177 716.129 438.259 708.017C442.543 696.735 436.768 698.134 427.018 695.296C399.217 687.204 371.411 692.319 343.684 695.711C338.158 696.386 332.623 698.989 327.625 701.689C289.056 722.526 240.547 759.598 223.659 789.876C214.643 806.041 200.595 814.451 188.034 825.618C143.215 865.476 131.452 874.117 115.916 908.043C104.794 932.333 96.3269 957.816 89.9264 983.629C81.7447 1016.62 75.5707 1050.07 72.8002 1084.22C70.8247 1108.58 67.3062 1132.88 65.0879 1157.3C63.5339 1174.4 62.4434 1187.11 62.4434 1196.75C65.2608 1196.75 67.9793 1196.75 71.4458 1196.75Z" fill="black"/>
<path d="M908.842 1196.75C910.342 1178.97 902.893 1133.21 899.495 1109.95C897.02 1093.02 897.226 1075.55 890.9 1059.19C889.332 1055.14 889.828 1049.91 894.89 1049.07C899.733 1048.27 901.837 1051.68 902.948 1057.16C908.776 1085.92 911.399 1115.08 914.888 1144.13C917.588 1166.6 920.802 1189.21 921.286 1196.69C916.905 1196.75 913.603 1196.75 908.842 1196.75Z" fill="black"/>
<path d="M204.964 1196.75C206.046 1179.08 211.003 1133.21 214.402 1109.95C216.877 1093.02 216.671 1075.55 222.997 1059.19C224.566 1055.14 224.07 1049.91 219.007 1049.07C214.165 1048.27 212.06 1051.68 210.949 1057.16C205.121 1085.92 202.498 1115.08 199.009 1144.13C196.309 1166.6 194.668 1196.75 194.668 1196.75C194.668 1196.75 200.204 1196.75 204.964 1196.75Z" fill="black"/>
<path d="M692.8 1197L409.686 1196.75C409.686 1196.75 399.55 871.027 399.55 804.017C399.55 748.563 426.954 687.953 438.526 706.032C459.875 739.388 495.909 747.329 550.279 749.746C636.547 753.581 641.462 721.294 653.218 714.624C676.832 701.228 692.8 756.952 692.8 814.456C692.8 893.373 692.8 1197 692.8 1197Z" fill="#383838"/>
<path d="M410.52 1197C410.52 1197 399.55 876.321 399.55 810.393C399.55 755.834 426.954 688.245 438.526 706.032C459.875 738.849 496.426 749.799 550.796 752.177C637.063 755.949 641.462 721.187 653.218 714.624C676.832 701.444 692.8 764.087 692.8 820.663C692.8 871.592 692.8 1196.75 692.8 1196.75" stroke="black" stroke-width="11.25"/>
<rect x="521.691" y="890" width="58.7489" height="58.7489" rx="29.3745" fill="#161616"/>
<path d="M551.065 897.982L531.27 933.423H551.065V897.982Z" fill="#38DEC8"/>
<path d="M551.065 897.982L570.861 933.423H551.065V897.982Z" fill="#38DEC8"/>
<path d="M551.065 906.922L538.613 928.953H551.065V906.922Z" fill="#161616"/>
<path d="M551.065 906.922L563.518 928.953H551.065V906.922Z" fill="#161616"/>
<rect x="452.086" y="956.412" width="58.7489" height="58.7489" rx="29.3745" fill="#161616"/>
<rect x="464.219" y="969.184" width="34.4831" height="34.4831" fill="#D591BD"/>
<rect x="464.219" y="969.184" width="34.4831" height="34.4831" fill="#D591BD"/>
<rect x="469.009" y="973.973" width="24.9044" height="24.9044" fill="#D591BD"/>
<rect x="469.009" y="973.973" width="24.9044" height="24.9044" fill="#161616"/>
<rect x="521.691" y="1022.82" width="58.7489" height="58.7489" rx="29.3745" fill="#161616"/>
<rect x="534.241" y="1039.33" width="5.74718" height="42.146" transform="rotate(-45 534.241 1039.33)" fill="#9BADE4"/>
<rect x="538.304" y="1069.13" width="5.74718" height="42.146" transform="rotate(-135 538.304 1069.13)" fill="#9BADE4"/>
<rect x="591.296" y="956.412" width="58.7489" height="58.7489" rx="29.3745" fill="#161616"/>
<rect x="601.832" y="966.948" width="37.6759" height="37.6759" rx="18.838" fill="#F06E6C"/>
<rect x="606.622" y="971.738" width="28.0973" height="28.0973" rx="14.0487" fill="#161616"/>
<path d="M317.28 263.528C325.563 242.587 336.696 224.213 350.179 207.172C352.163 204.729 354.442 202.541 356.963 200.658C359.306 198.835 362.47 196.64 360.168 192.73C356.043 185.721 358.754 179.893 363.618 174.378C361.003 169.818 358.233 165.611 356.081 161.108C351.687 151.913 356.187 142.857 366.137 140.622C379.295 137.668 392.03 137.884 403.719 145.889C405.755 147.282 408.25 148.005 411.122 149.304C413.655 141.954 415.709 135.004 418.427 128.325C423.1 116.835 433.395 114.735 441.571 123.711C443.51 125.84 445.141 126.815 447.845 127.097C459.493 128.31 459.485 128.382 462.731 139.558C474.862 136.386 486.94 132.739 499.236 130.108C526.977 124.183 554.851 120.189 583.418 123.969C607.493 127.156 631.07 132.024 653.713 140.91C695.467 157.296 732.758 180.364 762.364 214.602C786.632 242.667 810.854 270.781 834.542 299.333C841.055 307.182 846.061 316.56 840.383 327.552C836.624 334.827 829.808 338.427 822.842 341.312C791.435 354.331 760.725 349.187 729.727 338.492C709.503 331.513 691.518 319.926 671.496 312.781C668.578 311.739 665.831 309.79 662.353 310.556C659.309 316.458 661.678 323.201 657.442 329.507C648.287 343.136 634.478 342.515 621.623 342.765C600.885 343.228 580.176 340.997 560.013 336.128C537.176 330.578 514.372 325.113 492.438 317.37C489.41 320.754 492.176 322.608 493.193 324.672C498.893 336.245 492.569 346.967 479.864 347.342C473.703 347.523 467.793 347.142 462.348 343.701C459.388 341.831 456.033 340.683 452.196 341.703C449.941 347.164 452.981 352.31 453.201 357.603C454.007 376.97 449.276 395.412 444.435 413.96C439.668 432.221 429.303 447.541 420.443 463.685C418.286 467.613 415.577 472.026 410.423 471.3C404.693 470.495 406.523 464.805 405.536 461.092C402.273 448.833 403.851 435.54 398.309 423.836C392.834 412.278 386.459 401.167 374.689 394.571C365.276 389.295 352.541 392.031 347.539 401.476C345.472 405.382 341.357 405.59 339.098 409.501C334.882 416.799 328.833 422.844 329.962 432.315C330.18 434.142 327.872 435.344 325.052 435.022C311.177 405.962 304.699 375.327 307.824 342.772C309.104 329.439 308.493 316.02 309.515 302.61C310.529 289.335 314.204 276.951 317.28 263.528Z" fill="#39260E"/>
<path d="M656.8 599.111C665.236 594.58 668.341 599.496 671.133 605.127C658.941 621.704 620.098 622.93 610.308 605.728C625.481 601.212 641.611 605.667 656.8 599.111Z" fill="black"/>
<path d="M654.309 456.527C653.874 445.918 651.073 436.075 654.619 426.406C655.507 423.984 655.519 419.968 659.588 420.496C663.72 421.032 662.975 424.629 662.572 427.348C659.165 450.334 667.822 471.242 673.897 492.54C675.907 499.583 678.838 506.21 678.472 513.858C677.881 526.194 669.979 533.665 657.873 531.558C653.533 530.707 649.038 531.173 644.966 532.898C634.548 537.098 625.43 529.198 615.306 528.961C612.253 528.886 610.381 523.477 610.123 519.459C609.999 517.522 610.336 515.552 612.653 514.884C614.232 514.307 615.987 515.052 616.669 516.588C619.345 521.874 623.593 519.012 627.443 519.687C636.362 521.249 644.713 520.718 653.515 520.378C657.865 520.21 662.316 522.847 666.445 519.141C670.807 515.224 669.45 510.651 668.095 505.899C663.502 489.724 656.306 474.284 654.309 456.527Z" fill="black"/>
<path d="M545.346 450.976C549.087 441.948 552.014 428.926 563.41 434.09C578.919 441.12 573.804 457.135 570.667 469.611C569.484 474.319 559.777 481.545 556.977 480.378C544.761 475.285 542.528 464.071 545.346 450.976Z" fill="black"/>
<path d="M715.468 478.57C709.037 484.162 702.741 484.27 698.862 477.445C692.028 465.416 692.403 452.826 701.355 442.015C703.226 439.756 711.67 439.292 713.562 441.308C724.019 452.454 724.47 465.095 715.468 478.57Z" fill="black"/>
<path d="M586.962 398.554C590.659 402.325 598.404 403.408 594.573 410.325C590.89 416.977 583.674 418.104 576.976 417.165C569.718 416.237 562.622 414.318 555.885 411.463C546.259 407.206 538.14 408.789 529.937 414.539C525.381 417.733 518.809 423.124 514.902 417.597C510.35 411.161 519.247 408.545 523.158 405.087C535.603 394.082 550.943 391.394 566.828 391.008C574.104 390.831 579.995 395.365 586.962 398.554Z" fill="black"/>
<path d="M681.058 405.264C693.615 401.448 705.407 397.563 718.143 400.997C726.537 403.14 733.865 408.262 738.762 415.409C740.629 418.071 741.812 421.549 738.656 424.022C735.574 426.44 731.771 426.492 729.344 423.017C723.085 414.051 715.154 414.665 706.694 418.758C699.341 422.316 691.577 420.719 684.171 420.323C676.101 419.891 674.921 413.998 681.058 405.264Z" fill="black"/>
</g>
</g>
<defs>
<linearGradient id="paint0_linear_210_2917" x1="57.5" y1="1366.5" x2="1204.17" y2="57.9843" gradientUnits="userSpaceOnUse">
<stop offset="0.0159474" stop-color="#08505A"/>
<stop offset="1" stop-color="#88F1D8"/>
</linearGradient>
<linearGradient id="paint1_linear_210_2917" x1="0" y1="1197" x2="1195.47" y2="60.4522" gradientUnits="userSpaceOnUse">
<stop stop-color="#368D7E"/>
<stop offset="1" stop-color="#E4BCB6"/>
</linearGradient>
<clipPath id="clip0_210_2917">
<rect width="1138" height="1197" fill="white"/>
</clipPath>
</defs>
</svg>
